<?xml version="1.0" encoding="UTF-8"?>
<svg version="1.1" xmlns="http://www.w3.org/2000/svg" width="1200" height="1200">
<path d="M0 0 C237.6 0 475.2 0 720 0 C720 59.4 720 118.8 720 180 C482.4 180 244.8 180 0 180 C0 120.6 0 61.2 0 0 Z " fill="#044343" transform="translate(240,504)"/>
<path d="M0 0 C47.52 0 95.04 0 144 0 C142.19496769 3.61006461 140.91642958 5.31124517 138.11328125 8.046875 C136.9521582 9.1915625 136.9521582 9.1915625 135.76757812 10.359375 C134.95740234 11.14828125 134.14722656 11.9371875 133.3125 12.75 C126.79090184 19.10014804 126.79090184 19.10014804 120.66796875 25.828125 C115.28923436 32.09669777 109.27156367 37.78309985 103.39746094 43.58203125 C98.00402701 48.91263547 92.68720527 54.23860179 87.76123047 60.01171875 C84.05732953 64.19311177 80.03035965 68.07136634 76.0625 72 C75.18787109 72.87011719 74.31324219 73.74023438 73.41210938 74.63671875 C71.27702551 76.76013549 69.13962795 78.88116378 67 81 C68.52603415 84.21630141 70.09800771 86.28769299 72.6875 88.75 C75.28665869 91.22935778 77.69098161 93.78545525 80.01953125 96.515625 C85.04066003 102.30514984 90.54994614 107.61969088 96 113 C107.72007969 124.57009695 107.72007969 124.57009695 111.484375 128.98828125 C114.43416634 132.44668813 117.59853597 135.66060312 120.828125 138.85546875 C121.348302 139.37013702 121.868479 139.8848053 122.40441895 140.41506958 C124.56716053 142.55013781 126.73351431 144.68145684 128.90429688 146.80834961 C130.50834681 148.38212096 132.1060503 149.96212371 133.703125 151.54296875 C134.4344162 152.25407051 134.4344162 152.25407051 135.18048096 152.97953796 C138.11551647 155.89290591 139.80822526 158.34704209 142 162 C59.5 162 -23 162 -108 162 C-108 143.52 -108 125.04 -108 106 C-72.36 106 -36.72 106 0 106 C0 71.02 0 36.04 0 0 Z " fill="#034242" transform="translate(979,597)"/>
<path d="M0 0 C47.52 0 95.04 0 144 0 C144 34.98 144 69.96 144 106 C179.64 106 215.28 106 252 106 C252 124.48 252 142.96 252 162 C169.5 162 87 162 2 162 C5.95966472 156.72044704 9.5984973 152.12500093 14.24609375 147.59375 C14.82029556 147.02474976 15.39449738 146.45574951 15.98609924 145.86950684 C17.79844753 144.07474729 19.61740326 142.28689833 21.4375 140.5 C23.83545778 138.13886491 26.23013982 135.77447726 28.62109375 133.40625 C29.48376358 132.55196411 29.48376358 132.55196411 30.36386108 131.68041992 C33.79459922 128.2620264 37.03274219 124.74921423 40.16821289 121.05664062 C45.03427193 115.59326846 50.39735725 110.55653946 55.60253906 105.41796875 C61.1309869 99.95392344 66.62088436 94.50697389 71.65258789 88.57226562 C73.33467539 86.60947463 75.13587292 84.789562 77 83 C75.44249977 79.23703602 73.1107914 76.9083903 70.2109375 74.0859375 C69.26992187 73.16039062 68.32890625 72.23484375 67.359375 71.28125 C66.36515253 70.31191584 65.37035377 69.34317245 64.375 68.375 C62.41873271 66.47177547 60.46937986 64.56230388 58.5234375 62.6484375 C57.65638184 61.80458496 56.78932617 60.96073242 55.89599609 60.09130859 C54 58 54 58 54 56 C53.34 56 52.68 56 52 56 C50.67553711 54.64990234 50.67553711 54.64990234 49.08984375 52.7109375 C46.04871405 49.13285957 42.84715949 45.77066782 39.50390625 42.4765625 C39.02174652 42.00007263 38.53958679 41.52358276 38.04281616 41.03265381 C36.03762757 39.05449468 34.02825002 37.08068411 32.01489258 35.11083984 C30.52775618 33.65371557 29.04674995 32.19058243 27.56640625 30.7265625 C26.68927979 29.86627441 25.81215332 29.00598633 24.90844727 28.11962891 C23 26 23 26 23 24 C22.34 24 21.68 24 21 24 C19.765625 22.7421875 19.765625 22.7421875 18.25 20.875 C14.01454144 15.85385937 9.34070942 11.31293511 4.62402344 6.74951172 C4.02750977 6.16443848 3.43099609 5.57936523 2.81640625 4.9765625 C2.27443604 4.45143066 1.73246582 3.92629883 1.17407227 3.38525391 C0 2 0 2 0 0 Z " fill="#034242" transform="translate(77,597)"/>
<path d="M0 0 C0.55800293 0.46470703 1.11600586 0.92941406 1.69091797 1.40820312 C17.63953832 14.7360345 33.11104276 28.63168079 46 45 C46.85944709 46.05829174 47.72017209 47.11554669 48.58203125 48.171875 C59.40013329 61.53679146 68.83769101 75.86868018 77 91 C77.43151367 91.79744629 77.86302734 92.59489258 78.30761719 93.41650391 C79.71306932 96.02348557 81.10882884 98.6353719 82.5 101.25 C82.94617676 102.08523193 83.39235352 102.92046387 83.85205078 103.78100586 C84.46669189 104.94901733 84.46669189 104.94901733 85.09375 106.140625 C85.64579102 107.18524902 85.64579102 107.18524902 86.20898438 108.25097656 C87 110 87 110 87 112 C81.72 112 76.44 112 71 112 C70.34515625 110.77667969 69.6903125 109.55335938 69.015625 108.29296875 C59.03598069 89.80192836 48.21415553 72.36272878 35 56 C34.52127441 55.40413086 34.04254883 54.80826172 33.54931641 54.19433594 C21.89956965 39.81943117 8.73267791 26.21966976 -6 15 C-7.49853516 13.81083984 -7.49853516 13.81083984 -9.02734375 12.59765625 C-66.27393962 -32.66627797 -140.35982665 -53.23528708 -212.76171875 -45.28515625 C-270.64234473 -38.35562002 -326.59065344 -14.63309541 -369.30859375 25.49609375 C-371.45200861 27.49018508 -373.62434917 29.38162532 -375.875 31.25 C-387.84048874 41.70431935 -397.65162493 54.23198864 -407 67 C-407.65355469 67.87914062 -408.30710937 68.75828125 -408.98046875 69.6640625 C-418.59891645 82.96082394 -426.52639292 97.42185285 -434 112 C-439.28 112 -444.56 112 -450 112 C-448.4368721 107.3106163 -446.70977229 103.06886041 -444.5 98.6875 C-443.97660034 97.64916016 -443.97660034 97.64916016 -443.44262695 96.58984375 C-434.18131087 78.4784637 -423.16879054 61.51142512 -410 46 C-409.26394531 45.07960938 -408.52789062 44.15921875 -407.76953125 43.2109375 C-401.61180642 35.63370536 -394.88214097 28.6671808 -388 21.75 C-386.62968628 20.36590942 -386.62968628 20.36590942 -385.23168945 18.95385742 C-379.12939192 12.87882907 -372.77211726 7.31548296 -366 2 C-365.29407715 1.44538086 -364.5881543 0.89076172 -363.86083984 0.31933594 C-345.84451495 -13.65361672 -326.55802646 -25.17207325 -306 -35 C-305.31486328 -35.33 -304.62972656 -35.66 -303.92382812 -36 C-213.84547833 -78.9823999 -104.7385112 -68.23849561 0 0 Z " fill="#034242" transform="translate(781,369)"/>
<path d="M0 0 C4.66209202 1.72312209 8.03332953 4.04444161 12 7 C11.65390908 10.65505774 9.93251863 12.28516369 7.20751953 14.60083008 C6.39323486 15.26248169 6.39323486 15.26248169 5.5625 15.9375 C4.98612793 16.41276123 4.40975586 16.88802246 3.81591797 17.37768555 C-24.04147984 40.02881421 -55.08700648 57.30850727 -89 69 C-89.84691406 69.29245605 -90.69382812 69.58491211 -91.56640625 69.88623047 C-167.0499031 95.5875736 -248.40178721 87.58625527 -319.44335938 52.80371094 C-333.03618998 46.04254066 -345.7023612 37.87985347 -358 29 C-356.49087042 24.01987239 -353.44338151 20.75740058 -350 17 C-344.71243855 19.7836633 -339.67682681 22.83617748 -334.6875 26.125 C-298.96791319 49.32411727 -258.1929262 62.92772807 -216 68 C-215.28303955 68.0942627 -214.5660791 68.18852539 -213.82739258 68.28564453 C-162.54613054 74.35064516 -108.03493681 63.91993676 -62 41 C-61.2059375 40.60844727 -60.411875 40.21689453 -59.59375 39.81347656 C-37.95621355 29.05539053 -18.66980486 15.25897512 0 0 Z " fill="#034242" transform="translate(774,830)"/>
<path d="M0 0 C0.71542969 0.33499512 1.43085937 0.66999023 2.16796875 1.01513672 C22.45434791 10.57314229 40.88961461 22.52560245 58 37 C59.12361861 37.93629309 60.24732069 38.87248604 61.37109375 39.80859375 C86.9487586 61.26492294 107.45087346 87.47919454 123 117 C123 117.33 123 117.66 123 118 C119.04 118 115.08 118 111 118 C110.32517578 116.7625 110.32517578 116.7625 109.63671875 115.5 C100.40575927 98.82558603 89.40350585 83.75855504 76.43359375 69.77734375 C75 68 75 68 75 66 C74.34 66 73.68 66 73 66 C71.44921875 64.390625 71.44921875 64.390625 69.6875 62.25 C67.01237765 59.08238651 64.26074314 56.56907035 61 54 C61 53.34 61 52.68 61 52 C60.44570313 51.75894531 59.89140625 51.51789063 59.3203125 51.26953125 C56.48977565 49.72083685 54.31025556 47.80707428 51.875 45.6875 C13.27257784 12.97973119 -34.76007786 -6.80314877 -85 -12 C-86.11117188 -12.13019531 -87.22234375 -12.26039063 -88.3671875 -12.39453125 C-151.91762745 -18.71586148 -218.46628583 1.80907122 -268.0625 41.75 C-272.29646787 45.33057777 -276.43632811 49.01534624 -280.53125 52.75390625 C-282.18337465 54.25702599 -283.85030887 55.74402026 -285.53125 57.21484375 C-304.28000552 73.67787136 -320.82354297 95.64708594 -332 118 C-335.96 118 -339.92 118 -344 118 C-336.73624322 101.75212299 -326.58819948 86.48607415 -315 73 C-314.1252292 71.94359584 -313.25162243 70.88622716 -312.37890625 69.828125 C-301.72282445 57.02205278 -290.16351002 45.23828557 -277 35 C-275.95772249 34.14686294 -274.91744962 33.29127255 -273.87890625 32.43359375 C-264.46565981 24.73335614 -254.42275664 18.24682918 -244 12 C-243.26797363 11.55769043 -242.53594727 11.11538086 -241.78173828 10.65966797 C-169.96340655 -32.32708128 -75.36048306 -35.80264857 0 0 Z " fill="#034242" transform="translate(711,363)"/>
<path d="M0 0 C4.82382465 0.26799026 6.86565605 2.50744532 10 6 C-40.3358574 53.96711117 -110.11008317 74.76292349 -178.43663025 73.23304749 C-228.19108619 71.81880361 -276.36321403 54.25640314 -317 26 C-315.87548273 23.0280615 -314.77706209 20.66559313 -313 18 C-308.51465678 18.55039926 -305.81366771 20.25986836 -302.125 22.8125 C-271.85129126 42.92515116 -237.67688124 54.30081769 -202 60 C-201.26523437 60.11859375 -200.53046875 60.2371875 -199.7734375 60.359375 C-136.1517638 70.07613971 -68.63538829 51.55300967 -17 14 C-8.18355118 7.37044733 -8.18355118 7.37044733 0 0 Z " fill="#034242" transform="translate(754,807)"/>
<path d="M0 0 C1.0725 -0.020625 2.145 -0.04125 3.25 -0.0625 C6 0 6 0 9 2 C8.67 2.99 8.34 3.98 8 5 C6.02 5.33 4.04 5.66 2 6 C2.495 6.99 2.495 6.99 3 8 C3.43546458 13.138482 3.35709677 16.82054053 0.47265625 21.328125 C-2.7814316 25.02242103 -7.35803567 28.43253583 -12.21875 29.4765625 C-12.8065625 29.64929688 -13.394375 29.82203125 -14 30 C-14.33 30.99 -14.66 31.98 -15 33 C-14.34773437 33.17015625 -13.69546875 33.3403125 -13.0234375 33.515625 C-7.64614735 35.00667301 -3.3840652 36.51523022 1 40 C2.43304064 42.86608129 2.30644155 44.81300783 2 48 C-1.18029756 54.36059511 -6.53386217 58.30544373 -12.8125 61.375 C-20.31292572 62.84567171 -27.32456128 62.95076985 -34 59 C-36.80670313 56.33723037 -37.84937493 54.80333372 -38.5625 51 C-37.80145819 46.94111032 -36.15470311 45.593867 -33 43 C-31.36622358 41.94712186 -29.70818403 40.9272999 -28 40 C-28.99 39.34 -29.98 38.68 -31 38 C-30.65514457 35.1157546 -30.21744593 34.1792182 -27.93359375 32.296875 C-27.10988281 31.78640625 -26.28617188 31.2759375 -25.4375 30.75 C-24.61121094 30.22921875 -23.78492188 29.7084375 -22.93359375 29.171875 C-22.29550781 28.78515625 -21.65742187 28.3984375 -21 28 C-21.49371094 27.59007812 -21.98742187 27.18015625 -22.49609375 26.7578125 C-23.13675781 26.21898437 -23.77742187 25.68015625 -24.4375 25.125 C-25.07558594 24.59132813 -25.71367188 24.05765625 -26.37109375 23.5078125 C-29.06474588 21.01440789 -29.25583612 18.93120799 -29.4375 15.375 C-29.3858737 10.27874678 -28.0080716 7.44243126 -24.6953125 3.62890625 C-17.67574742 -3.1156989 -8.88286269 -1.36659426 0 0 Z " fill="#DBDDDD" transform="translate(827,577)"/>
<path d="M0 0 C3 2 3 2 3.51171875 4.1640625 C3.56972656 4.97617187 3.62773437 5.78828125 3.6875 6.625 C3.78611328 7.85089844 3.78611328 7.85089844 3.88671875 9.1015625 C3.92410156 9.72804688 3.96148437 10.35453125 4 11 C4.63808594 10.28972656 5.27617187 9.57945312 5.93359375 8.84765625 C6.75988281 7.92855469 7.58617187 7.00945313 8.4375 6.0625 C9.26121094 5.14597656 10.08492188 4.22945312 10.93359375 3.28515625 C13.895526 0.00967352 13.895526 0.00967352 17.375 -0.3125 C21 0 21 0 22.875 1.625 C24.19557424 4.41287895 24.65288691 6.94540484 25 10 C25.47050781 9.44570313 25.94101562 8.89140625 26.42578125 8.3203125 C27.04839844 7.59585938 27.67101562 6.87140625 28.3125 6.125 C28.92738281 5.40570312 29.54226563 4.68640625 30.17578125 3.9453125 C32.68217572 1.27254066 34.31808531 0.07103278 38 -0.3125 C41 0 41 0 42.6640625 1.1796875 C45.50053695 5.04459128 44.41556557 10.44476204 44 15 C43.34610409 18.12291667 42.56592467 21.15341988 41.65625 24.2109375 C40.94675126 27.22630713 40.89073246 29.91319197 41 33 C41.5775 32.71125 42.155 32.4225 42.75 32.125 C44.83333333 31.08333333 46.91666667 30.04166667 49 29 C48.31130276 33.94306891 45.05425373 36.18100319 41.421875 39.28125 C38.02938465 41.6888238 36.13941055 42.24836463 32 42 C30.04850783 40.52381271 29.14001555 39.58529022 28.56640625 37.1875 C28.54987585 27.93047651 30.93631512 18.97334408 33 10 C26.50727134 13.30678736 24.5830526 18.42560038 22 25 C20.37880325 30.26254247 19.16063387 35.62012065 18 41 C14.37 41 10.74 41 7 41 C7.57815529 34.2933986 8.84182309 27.9009014 10.30078125 21.33203125 C11.09373223 17.55333191 11.61610654 13.83893457 12 10 C1.95398333 16.31463905 -0.08599607 30.31118558 -3 41 C-6.63 41 -10.26 41 -14 41 C-13.30690978 37.10380191 -12.61312131 33.20772886 -11.91870117 29.31176758 C-11.56718032 27.33876947 -11.21620367 25.36567442 -10.86523438 23.39257812 C-10.64287109 22.14541016 -10.42050781 20.89824219 -10.19140625 19.61328125 C-9.98717041 18.46641846 -9.78293457 17.31955566 -9.57250977 16.13793945 C-9.07639915 13.41874552 -8.55229786 10.70825577 -8 8 C-8.7425 8.45375 -9.485 8.9075 -10.25 9.375 C-12.46930578 10.68640796 -14.67967822 11.88280803 -17 13 C-16.42400084 9.46616733 -15.1890605 7.83087229 -12.625 5.375 C-12.01914062 4.78460937 -11.41328125 4.19421875 -10.7890625 3.5859375 C-7.07327483 0.29202965 -4.90527227 -0.40877269 0 0 Z " fill="#DCDEDE" transform="translate(473,577)"/>
<path d="M0 0 C0.26559215 6.04545721 -0.74275367 11.48680827 -2.00390625 17.38671875 C-2.41868146 19.39647165 -2.83339312 21.40623766 -3.24804688 23.41601562 C-3.90621636 26.56345058 -4.56729408 29.71025393 -5.23022461 32.85668945 C-5.87036512 35.90691033 -6.50005329 38.95915414 -7.12890625 42.01171875 C-7.33093155 42.9534343 -7.53295685 43.89514984 -7.74110413 44.86540222 C-8.01149757 46.18245903 -8.01149757 46.18245903 -8.28735352 47.52612305 C-8.44945816 48.29554733 -8.61156281 49.06497162 -8.77857971 49.85771179 C-9.01735919 52.16795379 -8.69657098 53.79930258 -8 56 C-6.02 54.68 -4.04 53.36 -2 52 C-1.67 52.66 -1.34 53.32 -1 54 C-9.22693865 64.38578071 -9.22693865 64.38578071 -15.6875 65.4375 C-18.50845545 64.90380573 -19.37469069 64.3566985 -21 62 C-21.6875 59.3125 -21.6875 59.3125 -22 57 C-22.721875 57.763125 -23.44375 58.52625 -24.1875 59.3125 C-30.09893307 64.96120272 -30.09893307 64.96120272 -35.0625 65.0625 C-38 64 -38 64 -40.375 61.625 C-42.97620616 55.82230933 -43.13384964 50.40656596 -41.1171875 44.34765625 C-36.5593927 34.55292503 -29.82819665 27.56647722 -20 23 C-18.35 22.67 -16.7 22.34 -15 22 C-14.01 16.72 -13.02 11.44 -12 6 C-13.65 6 -15.3 6 -17 6 C-17 5.01 -17 4.02 -17 3 C-14.73000175 2.49622232 -12.45896997 1.99709981 -10.1875 1.5 C-8.29064453 1.08234375 -8.29064453 1.08234375 -6.35546875 0.65625 C-3 0 -3 0 0 0 Z " fill="#DBDDDD" transform="translate(702,554)"/>
<path d="M0 0 C2.85141433 2.26779151 3.67918318 4.73075545 4.88989258 8.09106445 C7.15028373 14.05907532 7.15028373 14.05907532 11.95458984 17.92822266 C16.89121541 19.3167507 21.90396049 19.63638483 27 20 C27.66 20.33 28.32 20.66 29 21 C27.48801988 24.9241565 25.1463422 26.48766673 21.8125 28.9375 C17.89726923 32.34490453 17.89726923 32.34490453 16.53125 37.1953125 C16.81041088 40.53748855 17.32353001 43.71664564 18 47 C18.20150787 48.60246732 18.39164629 50.20647511 18.5625 51.8125 C18.706875 52.864375 18.85125 53.91625 19 55 C14.70939633 53.84037739 11.28485152 52.0116166 7.5 49.75 C3.48770007 47.44580027 3.48770007 47.44580027 -1 47.25 C-1.99 47.8275 -2.98 48.405 -4 49 C-5.91486741 50.0449705 -7.8317039 51.08633709 -9.75 52.125 C-10.69359375 52.66382813 -11.6371875 53.20265625 -12.609375 53.7578125 C-15 55 -15 55 -17 55 C-16.85540319 53.35405757 -16.70924064 51.70825269 -16.5625 50.0625 C-16.44068359 48.68771484 -16.44068359 48.68771484 -16.31640625 47.28515625 C-16 44 -16 44 -15.51538086 41.86108398 C-14.60159007 37.30144426 -14.60159007 37.30144426 -16.13842773 33.06225586 C-17.80906985 31.2074245 -19.5513973 29.57212234 -21.4375 27.9375 C-22.06205078 27.35806641 -22.68660156 26.77863281 -23.33007812 26.18164062 C-24.86500447 24.76388423 -26.42973291 23.37851127 -28 22 C-25.68600977 19.68600977 -25.01395276 19.67743196 -21.8671875 19.3671875 C-20.65869141 19.24150391 -20.65869141 19.24150391 -19.42578125 19.11328125 C-18.58402344 19.03464844 -17.74226562 18.95601563 -16.875 18.875 C-15.60076172 18.74544922 -15.60076172 18.74544922 -14.30078125 18.61328125 C-12.20130273 18.40097443 -10.10073758 18.19946397 -8 18 C-7.73445312 17.14148438 -7.46890625 16.28296875 -7.1953125 15.3984375 C-5.98976199 11.97089192 -4.52755614 8.85826202 -2.875 5.625 C-2.33617187 4.56539063 -1.79734375 3.50578125 -1.2421875 2.4140625 C-0.83226562 1.61742187 -0.42234375 0.82078125 0 0 Z " fill="#034242" transform="translate(694,422)"/>
<path d="M0 0 C2.85141433 2.26779151 3.67918318 4.73075545 4.88989258 8.09106445 C7.15028373 14.05907532 7.15028373 14.05907532 11.95458984 17.92822266 C16.89121541 19.3167507 21.90396049 19.63638483 27 20 C27.66 20.33 28.32 20.66 29 21 C27.48801988 24.9241565 25.1463422 26.48766673 21.8125 28.9375 C17.89726923 32.34490453 17.89726923 32.34490453 16.53125 37.1953125 C16.81041088 40.53748855 17.32353001 43.71664564 18 47 C18.20150787 48.60246732 18.39164629 50.20647511 18.5625 51.8125 C18.706875 52.864375 18.85125 53.91625 19 55 C14.70939633 53.84037739 11.28485152 52.0116166 7.5 49.75 C3.48770007 47.44580027 3.48770007 47.44580027 -1 47.25 C-1.99 47.8275 -2.98 48.405 -4 49 C-5.91486741 50.0449705 -7.8317039 51.08633709 -9.75 52.125 C-10.69359375 52.66382813 -11.6371875 53.20265625 -12.609375 53.7578125 C-15 55 -15 55 -17 55 C-16.85540319 53.35405757 -16.70924064 51.70825269 -16.5625 50.0625 C-16.44068359 48.68771484 -16.44068359 48.68771484 -16.31640625 47.28515625 C-16 44 -16 44 -15.51538086 41.86108398 C-14.60159007 37.30144426 -14.60159007 37.30144426 -16.13842773 33.06225586 C-17.80906985 31.2074245 -19.5513973 29.57212234 -21.4375 27.9375 C-22.06205078 27.35806641 -22.68660156 26.77863281 -23.33007812 26.18164062 C-24.86500447 24.76388423 -26.42973291 23.37851127 -28 22 C-25.68600977 19.68600977 -25.01395276 19.67743196 -21.8671875 19.3671875 C-20.65869141 19.24150391 -20.65869141 19.24150391 -19.42578125 19.11328125 C-18.58402344 19.03464844 -17.74226563 18.95601563 -16.875 18.875 C-15.60076172 18.74544922 -15.60076172 18.74544922 -14.30078125 18.61328125 C-12.20130273 18.40097443 -10.10073758 18.19946397 -8 18 C-7.73445313 17.14148438 -7.46890625 16.28296875 -7.1953125 15.3984375 C-5.98976199 11.97089192 -4.52755614 8.85826202 -2.875 5.625 C-2.33617187 4.56539063 -1.79734375 3.50578125 -1.2421875 2.4140625 C-0.83226562 1.61742187 -0.42234375 0.82078125 0 0 Z " fill="#034242" transform="translate(502,422)"/>
<path d="M0 0 C0.66 0 1.32 0 2 0 C3.17133058 2.45620851 4.33721722 4.91474917 5.5 7.375 C5.83386719 8.07367188 6.16773438 8.77234375 6.51171875 9.4921875 C9 14.7734375 9 14.7734375 9 17 C15.6 17.99 22.2 18.98 29 20 C26.53714775 24.92570449 23.19095796 27.6400672 19.1171875 31.26953125 C15.74109869 35.6235646 16.78865028 39.29599284 17.4375 44.52734375 C17.623125 45.65269531 17.80875 46.77804687 18 47.9375 C18.185625 49.08089844 18.37125 50.22429687 18.5625 51.40234375 C18.706875 52.25957031 18.85125 53.11679687 19 54 C13.82305319 53.26979774 10.20495209 50.88897469 5.81640625 48.1796875 C2.29866395 46.70623649 0.63783373 46.94644556 -3 48 C-5.91251718 49.37596727 -5.91251718 49.37596727 -8.6875 51.0625 C-13.68470588 54 -13.68470588 54 -17 54 C-16.89751953 53.43603516 -16.79503906 52.87207031 -16.68945312 52.29101562 C-14.40374222 41.45560152 -14.40374222 41.45560152 -16.47265625 31.03125 C-18.53826372 29.02355676 -20.54657679 27.501021 -23 26 C-24.67344761 24.67518731 -26.34348188 23.34592097 -28 22 C-28 21.34 -28 20.68 -28 20 C-26.73285156 19.98066406 -25.46570313 19.96132813 -24.16015625 19.94140625 C-14.92152079 19.61932959 -14.92152079 19.61932959 -7.21679688 15.18945312 C-4.00691264 10.48246873 -1.92248362 5.34023228 0 0 Z " fill="#034242" transform="translate(598,384)"/>
<path d="M0 0 C-0.37750993 8.22971658 -1.93230869 16.14183911 -3.62792969 24.18066406 C-3.80356445 25.01823242 -3.97919922 25.85580078 -4.16015625 26.71875 C-4.40197632 27.84700195 -4.40197632 27.84700195 -4.64868164 28.99804688 C-5.08642325 31.15371682 -5.08642325 31.15371682 -5 34 C-4.36191406 33.28972656 -3.72382812 32.57945312 -3.06640625 31.84765625 C-2.24011719 30.92855469 -1.41382813 30.00945313 -0.5625 29.0625 C0.26121094 28.14597656 1.08492187 27.22945312 1.93359375 26.28515625 C4.8974011 23.00759992 4.8974011 23.00759992 8.375 22.75 C12 23 12 23 13.703125 24.25390625 C16.27398648 27.71527698 15.40032178 31.89036757 15 36 C14.42251425 39.50759443 13.73993327 42.99307039 12.97998047 46.46557617 C12.24828271 49.93033037 11.69684613 52.63423834 13 56 C14.98 54.68 16.96 53.36 19 52 C19 56 19 56 17.35546875 57.8515625 C16.28232422 58.72941406 16.28232422 58.72941406 15.1875 59.625 C14.47980469 60.21539063 13.77210938 60.80578125 13.04296875 61.4140625 C9.49362386 64.16938568 7.53405055 65.56675632 3 65 C1.08791698 63.50976743 0.13575456 62.56747851 -0.43359375 60.1875 C-0.45012415 50.93047651 1.93631512 41.97334408 4 33 C-3.65684245 37.05889474 -6.48954729 45.02895807 -9 53 C-10.05155639 56.65379503 -11.04606735 60.319579 -12 64 C-15.3 64 -18.6 64 -22 64 C-21.48480562 54.70036019 -19.92737246 45.72976881 -18.0625 36.625 C-16.06190848 26.78078101 -14.30755526 16.96297101 -13 7 C-14.65 6.67 -16.3 6.34 -18 6 C-18 5.01 -18 4.02 -18 3 C-15.56318413 2.49645133 -13.12564561 1.99703244 -10.6875 1.5 C-9.99720703 1.35691406 -9.30691406 1.21382812 -8.59570312 1.06640625 C-5.67475227 0.47374956 -2.98891878 0 0 0 Z " fill="#DBDDDD" transform="translate(859,554)"/>
<path d="M0 0 C-0.37750993 8.22971658 -1.93230869 16.14183911 -3.62792969 24.18066406 C-3.80356445 25.01823242 -3.97919922 25.85580078 -4.16015625 26.71875 C-4.40197632 27.84700195 -4.40197632 27.84700195 -4.64868164 28.99804688 C-5.08642325 31.15371682 -5.08642325 31.15371682 -5 34 C-4.36191406 33.28972656 -3.72382813 32.57945312 -3.06640625 31.84765625 C-2.24011719 30.92855469 -1.41382813 30.00945313 -0.5625 29.0625 C0.26121094 28.14597656 1.08492188 27.22945312 1.93359375 26.28515625 C4.8974011 23.00759992 4.8974011 23.00759992 8.375 22.75 C12 23 12 23 13.703125 24.25390625 C16.27398648 27.71527698 15.40032178 31.89036757 15 36 C14.42251425 39.50759443 13.73993327 42.99307039 12.97998047 46.46557617 C12.24828271 49.93033037 11.69684613 52.63423834 13 56 C14.98 54.68 16.96 53.36 19 52 C19 56 19 56 17.35546875 57.8515625 C16.28232422 58.72941406 16.28232422 58.72941406 15.1875 59.625 C14.47980469 60.21539063 13.77210938 60.80578125 13.04296875 61.4140625 C9.49362386 64.16938568 7.53405055 65.56675632 3 65 C1.08791698 63.50976743 0.13575456 62.56747851 -0.43359375 60.1875 C-0.45012415 50.93047651 1.93631512 41.97334408 4 33 C-3.65684245 37.05889474 -6.48954729 45.02895807 -9 53 C-10.05155639 56.65379503 -11.04606735 60.319579 -12 64 C-15.3 64 -18.6 64 -22 64 C-21.48480562 54.70036019 -19.92737246 45.72976881 -18.0625 36.625 C-16.06190848 26.78078101 -14.30755526 16.96297101 -13 7 C-14.65 6.67 -16.3 6.34 -18 6 C-18 5.01 -18 4.02 -18 3 C-15.56318413 2.49645133 -13.12564561 1.99703244 -10.6875 1.5 C-9.99720703 1.35691406 -9.30691406 1.21382812 -8.59570312 1.06640625 C-5.67475227 0.47374956 -2.98891878 0 0 0 Z " fill="#DBDDDD" transform="translate(369,554)"/>
<path d="M0 0 C-1.08449579 7.7956109 -2.46594253 15.39881455 -4.4140625 23.02734375 C-5.01836095 26.09315123 -5.10217843 28.88355775 -5 32 C-4.236875 31.525625 -3.47375 31.05125 -2.6875 30.5625 C0 29 0 29 3 28 C2.31130276 32.94306891 -0.94574627 35.18100319 -4.578125 38.28125 C-7.97061535 40.6888238 -9.86058945 41.24836463 -14 41 C-16.63004984 39.4219701 -16.92796199 38.28160312 -17.6875 35.3125 C-17.790625 34.549375 -17.89375 33.78625 -18 33 C-18.53625 33.763125 -19.0725 34.52625 -19.625 35.3125 C-22.2858743 38.32348934 -24.2281922 39.64214919 -28 41 C-31.61678274 40.92908269 -33.27607877 40.74888404 -35.8125 38.125 C-38.66981249 33.01191449 -38.70680113 27.64709383 -37.609375 21.984375 C-34.68585824 12.76405291 -27.19413541 4.96807738 -18.9375 0.25 C-13.19419848 -2.08282004 -5.81413301 -1.93804434 0 0 Z " fill="#DCDEDE" transform="translate(599,578)"/>
<path d="M0 0 C0.81533203 0.16226074 1.63066406 0.32452148 2.47070312 0.49169922 C6.48812461 1.07030129 10.42065072 1.14360099 14.46875 1.1328125 C15.6665509 1.13424759 15.6665509 1.13424759 16.8885498 1.13571167 C18.56941812 1.13638927 20.25028912 1.13456438 21.93115234 1.13037109 C24.49192224 1.12501689 27.05251676 1.13033035 29.61328125 1.13671875 C31.25260455 1.13605789 32.89192774 1.13477658 34.53125 1.1328125 C35.29078979 1.13483673 36.05032959 1.13686096 36.83288574 1.13894653 C41.07831606 1.12038449 44.76186255 0.70635624 49 0 C48.67 5.61 48.34 11.22 48 17 C46.68 17 45.36 17 44 17 C43.34 13.7 42.68 10.4 42 7 C37.71 6.67 33.42 6.34 29 6 C28.896875 7.485 28.79375 8.97 28.6875 10.5 C28.05997414 17.3939461 26.76588232 24.12994651 25.41601562 30.90966797 C24.9953645 33.02329176 24.58299163 35.13840919 24.171875 37.25390625 C22.15979319 47.52062043 22.15979319 47.52062043 21 51 C20.96045766 53.33299825 20.95598268 55.66708189 21 58 C22.32 58.33 23.64 58.66 25 59 C25 59.99 25 60.98 25 62 C16.75 62 8.5 62 0 62 C0.33 61.01 0.66 60.02 1 59 C3.97 58.505 3.97 58.505 7 58 C7.09651855 57.37448242 7.19303711 56.74896484 7.29248047 56.10449219 C8.94890107 45.76310409 11.0528301 35.51442721 13.125 25.25 C13.50148242 23.37764042 13.8777859 21.50524485 14.25390625 19.6328125 C15.16720934 15.08812431 16.08292927 10.54392935 17 6 C15.23994586 6.07893211 13.48092297 6.18108035 11.72265625 6.29296875 C10.25324585 6.37454224 10.25324585 6.37454224 8.75415039 6.45776367 C4.90189669 7.21619426 3.37154012 9.03477746 1.12109375 12.11328125 C-0.02066308 14.03477445 -1.03459391 15.98465918 -2 18 C-2.99 17.67 -3.98 17.34 -5 17 C-1.92482916 5.47835991 -1.92482916 5.47835991 0 0 Z " fill="#DADDDD" transform="translate(300,556)"/>
<path d="M0 0 C3.1875 2 3.1875 2 5 5 C5.35126453 9.35568012 5.18079626 11.49661507 2.484375 14.9296875 C-2.74708239 19.88468576 -9.6365356 24 -17 24 C-16.34 26.64 -15.68 29.28 -15 32 C-12.79561167 32.87754191 -12.79561167 32.87754191 -10 33 C-7.95708818 31.73339467 -5.95309888 30.40113616 -4 29 C-3.01 29 -2.02 29 -1 29 C-1.32460136 32.00090645 -1.87182898 32.89081728 -4.21484375 34.88671875 C-5.11332031 35.48097656 -6.01179687 36.07523438 -6.9375 36.6875 C-7.83339844 37.28949219 -8.72929688 37.89148438 -9.65234375 38.51171875 C-14.10896579 41.336965 -17.77117377 41.68849313 -23 41 C-26.03215675 38.80168636 -26.81654398 37.55036806 -28 34 C-29.0738762 23.06180381 -26.87603029 15.69082338 -20.125 7.125 C-14.41769557 0.99761478 -8.4675237 -1.61354162 0 0 Z " fill="#DCDEDE" transform="translate(734,577)"/>
<path d="M0 0 C3.1875 2 3.1875 2 5 5 C5.35126453 9.35568012 5.18079626 11.49661507 2.484375 14.9296875 C-2.74708239 19.88468576 -9.6365356 24 -17 24 C-16.34 26.64 -15.68 29.28 -15 32 C-12.79561167 32.87754191 -12.79561167 32.87754191 -10 33 C-7.95708818 31.73339467 -5.95309888 30.40113616 -4 29 C-3.01 29 -2.02 29 -1 29 C-1.32460136 32.00090645 -1.87182898 32.89081728 -4.21484375 34.88671875 C-5.11332031 35.48097656 -6.01179687 36.07523438 -6.9375 36.6875 C-7.83339844 37.28949219 -8.72929688 37.89148438 -9.65234375 38.51171875 C-14.10896579 41.336965 -17.77117377 41.68849313 -23 41 C-26.03215675 38.80168636 -26.81654398 37.55036806 -28 34 C-29.0738762 23.06180381 -26.87603029 15.69082338 -20.125 7.125 C-14.41769557 0.99761478 -8.4675237 -1.61354162 0 0 Z " fill="#DCDEDE" transform="translate(554,577)"/>
<path d="M0 0 C3.1875 2 3.1875 2 5 5 C5.35126453 9.35568012 5.18079626 11.49661507 2.484375 14.9296875 C-2.74708239 19.88468576 -9.6365356 24 -17 24 C-16.34 26.64 -15.68 29.28 -15 32 C-12.79561167 32.87754191 -12.79561167 32.87754191 -10 33 C-7.95708818 31.73339467 -5.95309888 30.40113616 -4 29 C-3.01 29 -2.02 29 -1 29 C-1.32460136 32.00090645 -1.87182898 32.89081728 -4.21484375 34.88671875 C-5.11332031 35.48097656 -6.01179688 36.07523438 -6.9375 36.6875 C-7.83339844 37.28949219 -8.72929687 37.89148438 -9.65234375 38.51171875 C-14.10896579 41.336965 -17.77117377 41.68849313 -23 41 C-26.03215675 38.80168636 -26.81654398 37.55036806 -28 34 C-29.0738762 23.06180381 -26.87603029 15.69082338 -20.125 7.125 C-14.41769557 0.99761478 -8.4675237 -1.61354162 0 0 Z " fill="#DCDEDE" transform="translate(421,577)"/>
<path d="M0 0 C0.31900566 6.23354313 -0.8953847 11.76053071 -2.3125 17.8125 C-3.97367697 25.16267944 -5.53352027 32.49975404 -6.75 39.9375 C-6.86512939 40.63915283 -6.98025879 41.34080566 -7.09887695 42.0637207 C-7.8376953 46.69822825 -8.43787008 51.34160849 -9 56 C-6.04590299 54.62845496 -3.55991624 53.01136276 -1 51 C-1.61128413 56.63958907 -4.39782467 58.79510231 -8.578125 62.31640625 C-11.97533634 64.67801607 -13.87989295 65.24720642 -18 65 C-19.99713211 63.49569577 -20.88210767 62.60848955 -21.36218262 60.13063049 C-21.2101558 53.88706338 -20.25800797 47.95678355 -19.03125 41.83984375 C-18.73160339 40.29412437 -18.73160339 40.29412437 -18.42590332 38.71717834 C-17.79178733 35.45569418 -17.14609268 32.19663043 -16.5 28.9375 C-16.06563654 26.71434296 -15.63203505 24.4910369 -15.19921875 22.26757812 C-14.14161841 16.84329758 -13.07452574 11.42095164 -12 6 C-13.65 6 -15.3 6 -17 6 C-17 5.01 -17 4.02 -17 3 C-14.73000175 2.49622232 -12.45896997 1.99709981 -10.1875 1.5 C-8.29064453 1.08234375 -8.29064453 1.08234375 -6.35546875 0.65625 C-3 0 -3 0 0 0 Z " fill="#DBDDDD" transform="translate(764,554)"/>
<path d="M0 0 C0.31900566 6.23354313 -0.8953847 11.76053071 -2.3125 17.8125 C-3.97367697 25.16267944 -5.53352027 32.49975404 -6.75 39.9375 C-6.86512939 40.63915283 -6.98025879 41.34080566 -7.09887695 42.0637207 C-7.8376953 46.69822825 -8.43787008 51.34160849 -9 56 C-6.04590299 54.62845496 -3.55991624 53.01136276 -1 51 C-1.61128413 56.63958907 -4.39782467 58.79510231 -8.578125 62.31640625 C-11.97533634 64.67801607 -13.87989295 65.24720642 -18 65 C-19.99713211 63.49569577 -20.88210767 62.60848955 -21.36218262 60.13063049 C-21.2101558 53.88706338 -20.25800797 47.95678355 -19.03125 41.83984375 C-18.73160339 40.29412437 -18.73160339 40.29412437 -18.42590332 38.71717834 C-17.79178733 35.45569418 -17.14609268 32.19663043 -16.5 28.9375 C-16.06563654 26.71434296 -15.63203505 24.4910369 -15.19921875 22.26757812 C-14.14161841 16.84329758 -13.07452574 11.42095164 -12 6 C-13.65 6 -15.3 6 -17 6 C-17 5.01 -17 4.02 -17 3 C-14.73000175 2.49622232 -12.45896997 1.99709981 -10.1875 1.5 C-8.29064453 1.08234375 -8.29064453 1.08234375 -6.35546875 0.65625 C-3 0 -3 0 0 0 Z " fill="#DBDDDD" transform="translate(629,554)"/>
<path d="M0 0 C1.32 0.33 2.64 0.66 4 1 C3.34 4.96 2.68 8.92 2 13 C4.64 13 7.28 13 10 13 C10 14.32 10 15.64 10 17 C7.03 17.33 4.06 17.66 1 18 C0.32611539 21.20696872 -0.33931274 24.41530986 -1 27.625 C-1.19078125 28.52863281 -1.3815625 29.43226563 -1.578125 30.36328125 C-2.52210398 34.98203556 -3.25214768 39.25647172 -3 44 C-2.236875 43.505 -1.47375 43.01 -0.6875 42.5 C2 41 2 41 5 41 C3.64195446 44.1214778 2.18624145 45.96958229 -0.4375 48.125 C-1.03433594 48.62257813 -1.63117187 49.12015625 -2.24609375 49.6328125 C-6.48277329 52.93534666 -6.48277329 52.93534666 -9.5 53.3125 C-12.50654028 52.93668247 -13.15030878 52.33451057 -15 50 C-17.41420809 39.90817521 -12.48549473 26.83421427 -10 17 C-12.31 17 -14.62 17 -17 17 C-15.8125 15 -15.8125 15 -14 13 C-11.3125 12.75 -11.3125 12.75 -9 13 C-8.938125 11.9275 -8.87625 10.855 -8.8125 9.75 C-8 6 -8 6 -5.625 3.6875 C-4.325625 2.8521875 -4.325625 2.8521875 -3 2 C-2.01 1.34 -1.02 0.68 0 0 Z " fill="#DDDFDF" transform="translate(901,566)"/>
<path d="M0 0 C0.99 -0.2784375 0.99 -0.2784375 2 -0.5625 C2.66 -0.706875 3.32 -0.85125 4 -1 C5.485 -0.01 5.485 -0.01 7 1 C6.67 1.99 6.34 2.98 6 4 C4.35 4 2.7 4 1 4 C1.33 4.66 1.66 5.32 2 6 C2.60209723 11.29845565 1.23153514 13.84516911 -2 18 C-2.433125 18.5775 -2.86625 19.155 -3.3125 19.75 C-5.93977076 21.69612649 -8.86177814 22.23024747 -12 23 C-10.42038699 26.15922602 -7.39906086 26.6261107 -4.2265625 27.90234375 C-1.9180609 29.04039454 -0.56684613 29.96507091 1 32 C1.62810617 36.86782281 1.81765912 38.86023274 -1.0625 42.875 C-6.67463237 46.93484044 -12.2869326 47.53278313 -19 47 C-23.0226217 45.43564712 -24.59149109 44.61276337 -27 41 C-27.0625 38.125 -27.0625 38.125 -26 35 C-23.84523162 33.02049986 -21.51566592 31.48443994 -19 30 C-19.20496094 29.39671875 -19.40992188 28.7934375 -19.62109375 28.171875 C-19.74613281 27.45515625 -19.87117187 26.7384375 -20 26 C-18.0625 23.25 -18.0625 23.25 -16 21 C-16.639375 20.46375 -17.27875 19.9275 -17.9375 19.375 C-20.52890037 16.39096321 -21 14.95306994 -21 11 C-19.62608185 6.5795677 -17.67399415 3.61272196 -14.25 0.5 C-9.33205856 -1.76981912 -5.20308572 -1.73436191 0 0 Z M-11.6015625 3.2265625 C-14.08795812 6.37970108 -14.75061736 10.04451419 -15 14 C-13.8119182 17.0182965 -13.8119182 17.0182965 -12 19 C-9.58414426 18.96906827 -9.58414426 18.96906827 -7 18 C-4.4679072 14.53947318 -3.76845293 11.93285167 -4.1875 7.75 C-4.64762536 3.99148158 -4.64762536 3.99148158 -7 2 C-9.939256 1.69598753 -9.939256 1.69598753 -11.6015625 3.2265625 Z M-20 34 C-21.24401278 36.38608611 -21.24401278 36.38608611 -21 39 C-19.8017483 41.5368109 -19.8017483 41.5368109 -17 43 C-13.6087263 43.49871672 -10.37626958 43.62565263 -7 43 C-5.15591774 41.72456548 -5.15591774 41.72456548 -4 40 C-3.68758887 37.46915186 -3.68758887 37.46915186 -5 35 C-10.32656902 30.78766225 -14.4453407 29.7609179 -20 34 Z " fill="#034242" transform="translate(782,742)"/>
<path d="M0 0 C-0.75015582 7.37653219 -1.83441535 14.67831776 -3 22 C-2.24847656 21.360625 -1.49695313 20.72125 -0.72265625 20.0625 C2.64452993 17.51174777 4.79302113 17 9 17 C11.4375 18.9375 11.4375 18.9375 13 21 C12.17733401 25.27786317 11.63834896 27.46320656 8.25 30.3125 C5.19935253 31.89649003 2.30061468 33.05696723 -1 34 C2.465 38.455 2.465 38.455 6 43 C10.88214887 42.35355339 10.88214887 42.35355339 14 40 C13.45650964 43.80443255 11.96915847 45.6081779 9 48 C5.93499548 49.17884789 4.58070005 49.21776252 1.5 48.0625 C-1.99933772 45.17554638 -3.74486563 41.93037704 -6 38 C-6.99 41.3 -7.98 44.6 -9 48 C-11.475 48.495 -11.475 48.495 -14 49 C-15.03959786 45.88120641 -14.98576712 44.91169922 -14.37915039 41.80395508 C-14.13878807 40.54298759 -14.13878807 40.54298759 -13.89356995 39.25654602 C-13.71341843 38.35333115 -13.53326691 37.45011627 -13.34765625 36.51953125 C-13.07918129 35.12754768 -13.07918129 35.12754768 -12.80528259 33.70744324 C-12.23144926 30.74103309 -11.64710853 27.77680348 -11.0625 24.8125 C-10.67183278 22.80286902 -10.28185021 20.79310481 -9.89257812 18.78320312 C-8.93632577 13.85388718 -7.97064426 8.92650133 -7 4 C-8.32 4 -9.64 4 -11 4 C-11 3.34 -11 2.68 -11 2 C-7.12315913 0.80712589 -4.08378077 0 0 0 Z M-1.1875 24.3125 C-2.26064453 25.23482422 -2.26064453 25.23482422 -3.35546875 26.17578125 C-5.3347898 27.96202593 -5.3347898 27.96202593 -5 31 C-0.18720039 30.55229771 2.64354991 29.55388833 6 26 C6.41870553 23.33071879 6.41870553 23.33071879 6 21 C2.27961985 21 1.55097121 21.90324391 -1.1875 24.3125 Z " fill="#034242" transform="translate(581,724)"/>
<path d="M0 0 C1.17469444 2.34938888 1.20034889 3.95073205 1.31640625 6.5703125 C1.37924805 7.91416016 1.37924805 7.91416016 1.44335938 9.28515625 C1.48267578 10.22230469 1.52199219 11.15945313 1.5625 12.125 C1.60568359 13.06988281 1.64886719 14.01476562 1.69335938 14.98828125 C1.79959072 17.32537092 1.90163176 19.6625683 2 22 C2.40927734 21.3908374 2.81855469 20.7816748 3.24023438 20.15405273 C4.27470054 18.61439434 5.30921067 17.07476549 6.34375 15.53515625 C8.28442213 12.56464631 10.07375345 9.51946557 11.82421875 6.43359375 C12.40623047 5.72396484 12.40623047 5.72396484 13 5 C13.99 5 14.98 5 16 5 C16 11.27 16 17.54 16 24 C20.5596179 19.4403821 22.8382291 17.10201165 24 11 C23.88710509 8.56302718 23.59188045 6.27693134 23.12890625 3.8828125 C23.08636719 3.26148438 23.04382813 2.64015625 23 2 C23.66 1.34 24.32 0.68 25 0 C27.625 0.375 27.625 0.375 30 1 C31.85924793 7.90577804 30.19229694 11.89418357 26.81640625 18.08984375 C23.25991677 23.78787528 19.25092418 29.14243466 13 32 C12.34 32 11.68 32 11 32 C10.34 27.71 9.68 23.42 9 19 C7.948125 20.4025 6.89625 21.805 5.8125 23.25 C3.15458734 26.68043606 0.58794018 29.49931442 -3 32 C-3.66 31.67 -4.32 31.34 -5 31 C-5 22.42 -5 13.84 -5 5 C-6.98 6.32 -8.96 7.64 -11 9 C-10.74682781 5.58217544 -9.71625376 4.72255923 -7.1875 2.25 C-4 0 -4 0 0 0 Z " fill="#034242" transform="translate(404,741)"/>
<path d="M0 0 C0.99 0.66 1.98 1.32 3 2 C4.31025405 9.05224977 2.45902581 16.14368569 0.734375 22.9609375 C-0.15543413 26.64323274 -0.63080787 30.23424026 -1 34 C2.26460973 32.19587357 3.88929795 31.16605307 6 28 C6.66 28 7.32 28 8 28 C7.51430343 32.27560164 6.44040072 33.98538769 3.125 36.6875 C2.42632813 37.26886719 1.72765625 37.85023438 1.0078125 38.44921875 C-2.53440799 41.18513613 -4.48463923 42.5644201 -9 42 C-11.02938383 40.45241233 -11.88721911 39.51919852 -12.43359375 37.00390625 C-12.44938672 27.13329976 -10.12020782 17.59309455 -8 8 C-9.16595703 8.70576172 -9.16595703 8.70576172 -10.35546875 9.42578125 C-12.53737973 10.72461452 -14.714261 11.899459 -17 13 C-16.42400084 9.46616733 -15.1890605 7.83087229 -12.625 5.375 C-12.01914062 4.78460937 -11.41328125 4.19421875 -10.7890625 3.5859375 C-7.07327483 0.29202965 -4.90527227 -0.40877269 0 0 Z " fill="#DBDEDE" transform="translate(784,577)"/>
<path d="M0 0 C0.70125 0.268125 1.4025 0.53625 2.125 0.8125 C2.95138376 3.70484315 3.125 5.69992431 3.125 8.8125 C3.54910156 8.24660156 3.97320313 7.68070313 4.41015625 7.09765625 C9.79719638 0.36089618 9.79719638 0.36089618 14.0625 -0.1875 C15.073125 -0.1875 16.08375 -0.1875 17.125 -0.1875 C20.30208813 4.57813219 18.92968638 9.31380975 18.125 14.8125 C17.25759213 18.85279457 16.24615101 22.83558697 15.125 26.8125 C17.105 25.4925 19.085 24.1725 21.125 22.8125 C21.125 25.8125 21.125 25.8125 19.734375 27.453125 C19.12078125 27.98421875 18.5071875 28.5153125 17.875 29.0625 C17.27171875 29.60390625 16.6684375 30.1453125 16.046875 30.703125 C14.125 31.8125 14.125 31.8125 11.953125 31.546875 C10.125 30.8125 10.125 30.8125 9.125 29.8125 C9.33874685 22.11761324 10.90087977 14.39491462 12.125 6.8125 C6.84792668 9.18319385 3.29066889 12.87278524 1.14453125 18.28515625 C0.40280343 20.78142806 -0.24836595 23.28521434 -0.875 25.8125 C-1.53129516 27.81592734 -2.19260646 29.81781118 -2.875 31.8125 C-4.525 31.8125 -6.175 31.8125 -7.875 31.8125 C-7.41580707 25.4563031 -6.70153762 19.31811676 -5.27734375 13.1015625 C-4.8430991 10.63100557 -4.80865506 8.31591578 -4.875 5.8125 C-6.195 6.8025 -7.515 7.7925 -8.875 8.8125 C-8.875 4.8125 -8.875 4.8125 -6.1875 2 C-2.875 -0.1875 -2.875 -0.1875 0 0 Z " fill="#034242" transform="translate(734.875,741.1875)"/>
<path d="M0 0 C-0.33 1.65 -0.66 3.3 -1 5 C-3.38564077 4.42415568 -5.66682784 3.77772405 -8 3 C-10.27376292 7.96093728 -11.78623966 12.67812773 -13 18 C-10.69 18 -8.38 18 -6 18 C-6 18.99 -6 19.98 -6 21 C-8.64 21 -11.28 21 -14 21 C-14.19335938 22.918125 -14.19335938 22.918125 -14.390625 24.875 C-17.45824433 52.290507 -17.45824433 52.290507 -26.4375 61.5 C-29.36750645 63.21512573 -31.62284657 63.77485644 -35 64 C-35.66 63.67 -36.32 63.34 -37 63 C-36.505 60.03 -36.505 60.03 -36 57 C-35.4225 57.165 -34.845 57.33 -34.25 57.5 C-31.73335631 58.14462031 -31.73335631 58.14462031 -28 58 C-24.74724369 45.76756005 -22.25934903 33.45184642 -20 21 C-21.98 21 -23.96 21 -26 21 C-25.67 20.01 -25.34 19.02 -25 18 C-23.02 18 -21.04 18 -19 18 C-18.938125 17.01 -18.87625 16.02 -18.8125 15 C-17.95947662 9.07689398 -14.68439477 4.56408086 -10.375 0.5625 C-6.17129583 -2.20309485 -4.44199312 -2.04091576 0 0 Z " fill="#034242" transform="translate(646,725)"/>
<path d="M0 0 C2.90987856 2.29727255 4.76995491 4.29109363 5.2734375 8.03125 C5.59202364 15.77534381 3.52654513 21.66880654 -1.38671875 27.703125 C-3.97329177 30.16922749 -6.6261649 31.40802031 -10.0625 32.125 C-14 32 -14 32 -16.9375 30.125 C-19.64982812 26.01541194 -20.40258375 22.9006829 -20 18 C-18.18236799 11.20407589 -15.28486648 5.57462508 -9.6875 1.1875 C-6.18798431 -0.35879763 -3.78788154 -0.48209401 0 0 Z M-8.5625 5.1875 C-12.5762241 9.81872011 -13.27788413 13.56020238 -13.25 19.625 C-13.25515625 20.75164063 -13.2603125 21.87828125 -13.265625 23.0390625 C-13.22114483 26.18626454 -13.22114483 26.18626454 -11 29 C-7.07155677 27.7259103 -5.05541292 26.62144181 -3 23 C-0.87914265 17.30717238 0.55861137 10.48289695 -2.015625 4.73046875 C-2.50289062 3.87388672 -2.50289062 3.87388672 -3 3 C-6.18125241 2.67536881 -6.18125241 2.67536881 -8.5625 5.1875 Z " fill="#034242" transform="translate(557,741)"/>
<path d="M0 0 C2.90987856 2.29727255 4.76995491 4.29109363 5.2734375 8.03125 C5.59202364 15.77534381 3.52654513 21.66880654 -1.38671875 27.703125 C-3.97329177 30.16922749 -6.6261649 31.40802031 -10.0625 32.125 C-14 32 -14 32 -16.9375 30.125 C-19.64982812 26.01541194 -20.40258375 22.9006829 -20 18 C-18.18236799 11.20407589 -15.28486648 5.57462508 -9.6875 1.1875 C-6.18798431 -0.35879763 -3.78788154 -0.48209401 0 0 Z M-8.5625 5.1875 C-12.5762241 9.81872011 -13.27788413 13.56020238 -13.25 19.625 C-13.25515625 20.75164063 -13.2603125 21.87828125 -13.265625 23.0390625 C-13.22114483 26.18626454 -13.22114483 26.18626454 -11 29 C-7.07155677 27.7259103 -5.05541292 26.62144181 -3 23 C-0.87914265 17.30717238 0.55861137 10.48289695 -2.015625 4.73046875 C-2.50289062 3.87388672 -2.50289062 3.87388672 -3 3 C-6.18125241 2.67536881 -6.18125241 2.67536881 -8.5625 5.1875 Z " fill="#034242" transform="translate(528,741)"/>
<path d="M0 0 C2 2 2 2 2.375 4.8125 C1.8888694 8.94461007 1.05816368 10.16027658 -2 13 C-10.51648352 18 -10.51648352 18 -14 18 C-13.67 20.31 -13.34 22.62 -13 25 C-11.35669053 25.89724685 -11.35669053 25.89724685 -9 26 C-6.49713591 24.86915563 -4.32992278 23.47860484 -2 22 C-2.4764991 26.28849188 -4.72587939 28.3664682 -8 31 C-11.5 32.0625 -11.5 32.0625 -15 32 C-18.42741629 29.91374661 -19.72481037 28.8255689 -21 25 C-21.58091683 17.59331037 -19.80654109 11.94614703 -15.1875 6.1875 C-10.84340897 1.489446 -6.49917654 -0.73854279 0 0 Z M-11.25 6.6875 C-12.79545315 9.61282204 -13.61750976 11.74883293 -14 15 C-9.63459142 13.80943402 -6.74214963 12.69135527 -4 9 C-3.66501699 6.33165034 -3.66501699 6.33165034 -4 4 C-7.88137039 3.35310494 -8.65400898 3.58673295 -11.25 6.6875 Z " fill="#034242" transform="translate(686,741)"/>
<path d="M0 0 C2 2 2 2 2.375 4.8125 C1.8888694 8.94461007 1.05816368 10.16027658 -2 13 C-10.51648352 18 -10.51648352 18 -14 18 C-13.67 20.31 -13.34 22.62 -13 25 C-11.35669053 25.89724685 -11.35669053 25.89724685 -9 26 C-6.49713591 24.86915563 -4.32992278 23.47860484 -2 22 C-2.4764991 26.28849188 -4.72587939 28.3664682 -8 31 C-11.5 32.0625 -11.5 32.0625 -15 32 C-18.42741629 29.91374661 -19.72481037 28.8255689 -21 25 C-21.58091683 17.59331037 -19.80654109 11.94614703 -15.1875 6.1875 C-10.84340897 1.489446 -6.49917654 -0.73854279 0 0 Z M-11.25 6.6875 C-12.79545315 9.61282204 -13.61750976 11.74883293 -14 15 C-9.63459142 13.80943402 -6.74214963 12.69135527 -4 9 C-3.66501699 6.33165034 -3.66501699 6.33165034 -4 4 C-7.88137039 3.35310494 -8.65400898 3.58673295 -11.25 6.6875 Z " fill="#034242" transform="translate(661,741)"/>
<path d="M0 0 C2 2 2 2 2.375 4.8125 C1.8888694 8.94461007 1.05816368 10.16027658 -2 13 C-10.51648352 18 -10.51648352 18 -14 18 C-13.67 20.31 -13.34 22.62 -13 25 C-11.35669053 25.89724685 -11.35669053 25.89724685 -9 26 C-6.49713591 24.86915563 -4.32992278 23.47860484 -2 22 C-2.4764991 26.28849188 -4.72587939 28.3664682 -8 31 C-11.5 32.0625 -11.5 32.0625 -15 32 C-18.42741629 29.91374661 -19.72481037 28.8255689 -21 25 C-21.58091683 17.59331037 -19.80654109 11.94614703 -15.1875 6.1875 C-10.84340897 1.489446 -6.49917654 -0.73854279 0 0 Z M-11.25 6.6875 C-12.79545315 9.61282204 -13.61750976 11.74883293 -14 15 C-9.63459142 13.80943402 -6.74214963 12.69135527 -4 9 C-3.66501699 6.33165034 -3.66501699 6.33165034 -4 4 C-7.88137039 3.35310494 -8.65400898 3.58673295 -11.25 6.6875 Z " fill="#034242" transform="translate(458,741)"/>
<path d="M0 0 C-0.56136899 8.06363004 -2.01751872 15.91930817 -3.58398438 23.83422852 C-4.00383203 25.95687379 -4.41649173 28.08082609 -4.828125 30.20507812 C-6.84803901 40.54411704 -6.84803901 40.54411704 -8 44 C-6.02 42.68 -4.04 41.36 -2 40 C-2 43 -2 43 -3.390625 44.640625 C-4.00421875 45.17171875 -4.6178125 45.7028125 -5.25 46.25 C-5.85328125 46.79140625 -6.4565625 47.3328125 -7.078125 47.890625 C-9 49 -9 49 -11.171875 48.734375 C-13 48 -13 48 -14 47 C-13.92961536 38.08546599 -11.61870798 29.10177755 -9.9375 20.375 C-9.65259819 18.87898172 -9.36808997 17.38288844 -9.08398438 15.88671875 C-8.39385511 12.25693709 -7.69841682 8.6281973 -7 5 C-8.32 4.67 -9.64 4.34 -11 4 C-11 3.34 -11 2.68 -11 2 C-7.12315913 0.80712589 -4.08378077 0 0 0 Z " fill="#034242" transform="translate(705,724)"/>
<path d="M0 0 C0.99 0.66 1.98 1.32 3 2 C2.625 4.4375 2.625 4.4375 2 7 C1.01 7.495 1.01 7.495 0 8 C-0.763125 7.34 -1.52625 6.68 -2.3125 6 C-4.84277939 3.70149462 -4.84277939 3.70149462 -8 4 C-8.30117453 7.11578743 -8.26624636 8.60028288 -6.50390625 11.24609375 C-5.86324219 11.96925781 -5.22257813 12.69242188 -4.5625 13.4375 C-1.68935676 16.9445959 0.10704758 19.28990657 0 24 C-0.77625281 27.70876343 -1.56044528 28.71029348 -4.75 30.8125 C-9.00481539 32.36714409 -12.14871953 32.77948651 -16.375 31 C-16.91125 30.67 -17.4475 30.34 -18 30 C-18 28.35 -18 26.7 -18 25 C-16.35 24.67 -14.7 24.34 -13 24 C-12.566875 24.66 -12.13375 25.32 -11.6875 26 C-10.8521875 26.99 -10.8521875 26.99 -10 28 C-9.01 28 -8.02 28 -7 28 C-6.40650804 25.38336285 -6.40650804 25.38336285 -7 22 C-8.56367579 19.77682537 -8.56367579 19.77682537 -10.5 17.5625 C-13.04666982 14.48893298 -13.94914971 13.27736521 -14.6875 9.25 C-13.89147136 5.48695554 -12.70239439 3.70239439 -10 1 C-6.87293041 -0.5635348 -3.42017557 -0.39958487 0 0 Z " fill="#034242" transform="translate(806,741)"/>
<path d="M0 0 C1.9375 1.25 1.9375 1.25 3 3 C2.875 5.125 2.875 5.125 2 7 C1.01 7.33 0.02 7.66 -1 8 C-1.37125 7.505 -1.7425 7.01 -2.125 6.5 C-4.74694393 4.40244486 -6.73842472 4.78256165 -10 5 C-11.91536004 9.72455478 -13.13865582 13.43473933 -13.125 18.5625 C-13.12757813 19.53316406 -13.13015625 20.50382813 -13.1328125 21.50390625 C-13.16650953 23.99952953 -13.16650953 23.99952953 -12 26 C-8.04179141 25.43454163 -5.3340947 24.19097652 -2 22 C-2.73474284 26.32367903 -4.7082896 28.15814338 -8.0234375 30.859375 C-10 32 -10 32 -13.75 32.0625 C-16.9651952 31.01137849 -17.98731819 30.57111376 -20 28 C-21.79950057 21.58785557 -21.21828038 15.7879151 -18 10 C-13.68404576 3.76584387 -8.06427735 -1.28295321 0 0 Z " fill="#034242" transform="translate(504,741)"/>
<path d="M0 0 C-0.02866369 6.89361776 -1.37055942 12.7247436 -3.9375 19.0625 C-4.20256348 19.71742432 -4.46762695 20.37234863 -4.74072266 21.04711914 C-5.90817077 23.81210875 -6.85881957 25.85881957 -9 28 C-11.625 27.625 -11.625 27.625 -14 27 C-14.65057877 16.96662967 -14.15818459 9.17335922 -7.53125 1.2421875 C-5.15952395 -0.68181475 -2.93792171 -0.19586145 0 0 Z " fill="#094747" transform="translate(587,582)"/>
<path d="M0 0 C0.721875 0.12375 1.44375 0.2475 2.1875 0.375 C2.86400454 10.3534419 0.52079295 20.45838382 -5.8125 28.375 C-7.4625 28.045 -9.1125 27.715 -10.8125 27.375 C-11.22779276 18.28470285 -11.00787233 10.35095341 -5.4375 2.8125 C-2.8125 0.375 -2.8125 0.375 0 0 Z " fill="#074545" transform="translate(682.8125,581.625)"/>
<path d="M0 0 C2.375 0.6875 2.375 0.6875 3.375 1.6875 C2.92364808 10.26318655 0.55572858 18.42101723 -1.625 26.6875 C0.355 25.3675 2.335 24.0475 4.375 22.6875 C4.705 23.3475 5.035 24.0075 5.375 24.6875 C2.79715154 27.33502004 0.45851902 29.63182065 -2.625 31.6875 C-4.8125 31.3125 -4.8125 31.3125 -6.625 30.6875 C-8.28779445 25.58335249 -6.90315926 21.06702763 -5.75 16 C-5.56308594 15.13310547 -5.37617187 14.26621094 -5.18359375 13.37304688 C-3.78792476 7.01334951 -3.78792476 7.01334951 -2.625 4.6875 C-4.605 6.0075 -6.585 7.3275 -8.625 8.6875 C-8.955 8.0275 -9.285 7.3675 -9.625 6.6875 C-4.1448162 -0.4934305 -4.1448162 -0.4934305 0 0 Z " fill="#034242" transform="translate(716.625,741.3125)"/>
<path d="M0 0 C3.90867743 1.07229204 7.22122248 2.85760361 10.20703125 5.60546875 C11.01953125 8.23046875 11.01953125 8.23046875 10.20703125 10.60546875 C7.2922744 13.33217677 4.57193203 13.8494011 0.70703125 14.04296875 C-2.45630355 13.91094309 -3.93191219 13.53741482 -6.85546875 12.10546875 C-8.89796544 9.46998914 -9.14766598 8.6771298 -9.29296875 5.48046875 C-9.12796875 4.20171875 -8.96296875 2.92296875 -8.79296875 1.60546875 C-5.4353319 -0.63295582 -3.90748103 -0.61620758 0 0 Z " fill="#084646" transform="translate(808.79296875,620.39453125)"/>
<path d="M0 0 C0.78375 0.04125 1.5675 0.0825 2.375 0.125 C5.33130111 4.97607325 4.3728081 9.73683626 3.375 15.125 C2.1892079 17.59540021 1.27560557 19.22439443 -0.625 21.125 C-3.0625 21.375 -3.0625 21.375 -5.625 21.125 C-8.33313058 17.06280412 -8.15480034 13.89320302 -7.625 9.125 C-6.36428946 4.8060497 -5.012013 0.23866729 0 0 Z " fill="#0C4949" transform="translate(815.625,579.875)"/>
<path d="M0 0 C1.875 1.125 1.875 1.125 3 3 C3.54068562 6.63031776 3.46379841 8.32214079 1.375 11.375 C-1.69371124 13.47464453 -3.35392711 13.62060815 -7 13 C-8.9375 11.375 -8.9375 11.375 -10 9 C-9.87177883 5.85858144 -9.4995896 3.78882568 -7.8125 1.125 C-5.09975061 -0.55877549 -3.12124489 -0.39015561 0 0 Z " fill="#D9DCDC" transform="translate(788,555)"/>
<path d="M0 0 C1.32 0.33 2.64 0.66 4 1 C4.64455719 6.15645754 3.23091314 9.12643289 0.4453125 13.296875 C-1.42701284 15.5031827 -3.19605006 16.35909716 -6 17 C-5.82316211 10.05509386 -4.11844576 5.57737857 0 0 Z " fill="#0E4A4A" transform="translate(724,580)"/>
<path d="M0 0 C1.32 0.33 2.64 0.66 4 1 C4.64455719 6.15645754 3.23091314 9.12643289 0.4453125 13.296875 C-1.42701284 15.5031827 -3.19605006 16.35909716 -6 17 C-5.82316211 10.05509386 -4.11844576 5.57737857 0 0 Z " fill="#0E4A4A" transform="translate(544,580)"/>
<path d="M0 0 C1.32 0.33 2.64 0.66 4 1 C4.64455719 6.15645754 3.23091314 9.12643289 0.4453125 13.296875 C-1.42701284 15.5031827 -3.19605006 16.35909716 -6 17 C-5.82316211 10.05509386 -4.11844576 5.57737857 0 0 Z " fill="#0E4A4A" transform="translate(411,580)"/>
<path d="M0 0 C2.125 0.375 2.125 0.375 4 1 C4.625 2.8125 4.625 2.8125 5 5 C4.01 6.485 4.01 6.485 3 8 C1.35 7.67 -0.3 7.34 -2 7 C-2.125 4.625 -2.125 4.625 -2 2 C-1.34 1.34 -0.68 0.68 0 0 Z " fill="#034242" transform="translate(716,726)"/>
</svg>
